<svg id="visual" viewBox="0 0 960 540" width="960" height="540" xmlns="http://www.w3.org/2000/svg" xmlns:xlink="http://www.w3.org/1999/xlink" version="1.1"><rect x="0" y="0" width="960" height="540" fill="transparent"></rect><defs><linearGradient id="grad1_0" x1="43.8%" y1="0%" x2="100%" y2="100%"><stop offset="14.444444444444446%" stop-color="#3f51b5" stop-opacity="1"></stop><stop offset="85.55555555555554%" stop-color="#3f51b5" stop-opacity="1"></stop></linearGradient></defs><defs><linearGradient id="grad1_1" x1="43.8%" y1="0%" x2="100%" y2="100%"><stop offset="14.444444444444446%" stop-color="#3f51b5" stop-opacity="1"></stop><stop offset="85.55555555555554%" stop-color="#a6a3db" stop-opacity="1"></stop></linearGradient></defs><defs><linearGradient id="grad1_2" x1="43.8%" y1="0%" x2="100%" y2="100%"><stop offset="14.444444444444446%" stop-color="transparent" stop-opacity="1"></stop><stop offset="85.55555555555554%" stop-color="#a6a3db" stop-opacity="1"></stop></linearGradient></defs><defs><linearGradient id="grad2_0" x1="0%" y1="0%" x2="56.3%" y2="100%"><stop offset="14.444444444444446%" stop-color="#3f51b5" stop-opacity="1"></stop><stop offset="85.55555555555554%" stop-color="#3f51b5" stop-opacity="1"></stop></linearGradient></defs><defs><linearGradient id="grad2_1" x1="0%" y1="0%" x2="56.3%" y2="100%"><stop offset="14.444444444444446%" stop-color="#a6a3db" stop-opacity="1"></stop><stop offset="85.55555555555554%" stop-color="#3f51b5" stop-opacity="1"></stop></linearGradient></defs><defs><linearGradient id="grad2_2" x1="0%" y1="0%" x2="56.3%" y2="100%"><stop offset="14.444444444444446%" stop-color="#a6a3db" stop-opacity="1"></stop><stop offset="85.55555555555554%" stop-color="transparent" stop-opacity="1"></stop></linearGradient></defs><g transform="translate(960, 0)"><path d="M0 378C-46.7 386.1 -93.4 394.2 -116.8 359.5C-140.2 324.8 -140.4 247.4 -146.9 202.3C-153.5 157.1 -166.4 144.2 -178 129.3C-189.6 114.4 -199.9 97.6 -233 75.7C-266.1 53.8 -322.1 26.9 -378 0L0 0Z" fill="#d3d0ed"></path><path d="M0 252C-31.1 257.4 -62.3 262.8 -77.9 239.7C-93.5 216.6 -93.6 164.9 -98 134.8C-102.3 104.7 -110.9 96.1 -118.7 86.2C-126.4 76.3 -133.3 65.1 -155.3 50.5C-177.4 35.9 -214.7 17.9 -252 0L0 0Z" fill="#7779c8"></path><path d="M0 126C-15.6 128.7 -31.1 131.4 -38.9 119.8C-46.7 108.3 -46.8 82.5 -49 67.4C-51.2 52.4 -55.5 48.1 -59.3 43.1C-63.2 38.1 -66.6 32.5 -77.7 25.2C-88.7 17.9 -107.4 9 -126 0L0 0Z" fill="#3f51b5"></path></g><g transform="translate(0, 540)"><path d="M0 -378C21.8 -320.9 43.6 -263.8 82.2 -253C120.8 -242.1 176.3 -277.5 189.3 -260.5C202.2 -243.5 172.7 -174.3 202.3 -146.9C231.8 -119.6 320.4 -134.3 359.5 -116.8C398.6 -99.3 388.3 -49.7 378 0L0 0Z" fill="#d3d0ed"></path><path d="M0 -252C14.5 -213.9 29 -175.9 54.8 -168.7C80.6 -161.4 117.5 -185 126.2 -173.7C134.8 -162.4 115.1 -116.2 134.8 -98C154.5 -79.8 213.6 -89.5 239.7 -77.9C265.8 -66.2 258.9 -33.1 252 0L0 0Z" fill="#7779c8"></path><path d="M0 -126C7.3 -107 14.5 -87.9 27.4 -84.3C40.3 -80.7 58.8 -92.5 63.1 -86.8C67.4 -81.2 57.6 -58.1 67.4 -49C77.3 -39.9 106.8 -44.8 119.8 -38.9C132.9 -33.1 129.4 -16.6 126 0L0 0Z" fill="#3f51b5"></path></g></svg>