<svg id="visual" viewBox="0 0 1200 600" width="1200" height="600" xmlns="http://www.w3.org/2000/svg" xmlns:xlink="http://www.w3.org/1999/xlink" version="1.1"><path d="M0 150L18.2 144.2C36.3 138.3 72.7 126.7 109 111C145.3 95.3 181.7 75.7 218 71C254.3 66.3 290.7 76.7 327 90.8C363.3 105 399.7 123 436 125.5C472.3 128 508.7 115 545.2 102.3C581.7 89.7 618.3 77.3 654.8 86.8C691.3 96.3 727.7 127.7 764 139.5C800.3 151.3 836.7 143.7 873 122.8C909.3 102 945.7 68 982 61.2C1018.3 54.3 1054.7 74.7 1091 82.7C1127.3 90.7 1163.7 86.3 1181.8 84.2L1200 82L1200 0L1181.8 0C1163.7 0 1127.3 0 1091 0C1054.7 0 1018.3 0 982 0C945.7 0 909.3 0 873 0C836.7 0 800.3 0 764 0C727.7 0 691.3 0 654.8 0C618.3 0 581.7 0 545.2 0C508.7 0 472.3 0 436 0C399.7 0 363.3 0 327 0C290.7 0 254.3 0 218 0C181.7 0 145.3 0 109 0C72.7 0 36.3 0 18.2 0L0 0Z" fill="#3f51b5" stroke-linecap="round" stroke-linejoin="miter"></path></svg>