<svg id="visual" viewBox="0 0 1200 600" width="1200" height="600" xmlns="http://www.w3.org/2000/svg" xmlns:xlink="http://www.w3.org/1999/xlink" fill="#fffffff7" version="1.1"><path d="M0 480L15.3 470C30.7 460 61.3 440 92.2 417.2C123 394.3 154 368.7 184.8 373.5C215.7 378.3 246.3 413.7 277 434.8C307.7 456 338.3 463 369.2 462.8C400 462.7 431 455.3 461.8 418.2C492.7 381 523.3 314 554 316.3C584.7 318.7 615.3 390.3 646 404.5C676.7 418.7 707.3 375.3 738.2 359.5C769 343.7 800 355.3 830.8 381.3C861.7 407.3 892.3 447.7 923 456.2C953.7 464.7 984.3 441.3 1015.2 396.3C1046 351.3 1077 284.7 1107.8 271.7C1138.7 258.7 1169.3 299.3 1184.7 319.7L1200 340L1200 601L1184.7 601C1169.3 601 1138.7 601 1107.8 601C1077 601 1046 601 1015.2 601C984.3 601 953.7 601 923 601C892.3 601 861.7 601 830.8 601C800 601 769 601 738.2 601C707.3 601 676.7 601 646 601C615.3 601 584.7 601 554 601C523.3 601 492.7 601 461.8 601C431 601 400 601 369.2 601C338.3 601 307.7 601 277 601C246.3 601 215.7 601 184.8 601C154 601 123 601 92.2 601C61.3 601 30.7 601 15.3 601L0 601Z" fill="#fffffff7" stroke-linecap="round"  stroke-linejoin="miter"></path></svg>